<svg width="433" height="564" viewBox="0 0 433 564" fill="none" xmlns="http://www.w3.org/2000/svg">
<g filter="url(#filter0_f_162_71)">
<path d="M258.198 329.709C254.332 354.028 236.097 368.064 220.649 382.334C216.815 377.865 215.51 381.048 211.548 384.589C202.655 392.537 196.55 389.532 185.679 389.017C162.311 387.909 150.573 358.612 133.797 343.826C122.038 333.461 112.533 336.793 99.5439 340.902C79.7395 347.167 60.7226 346.124 40.9263 339.732C28.2226 335.631 5.7831 329.366 1.15516 311.833C-2.45675 298.149 3.0823 282.611 8.39279 271.152C16.1226 254.473 22.7988 245.875 36.77 236.653C45.1326 231.134 58.7762 227.861 67.512 223.288C86.9504 213.113 103.322 196.676 122.905 186.701C136.936 179.554 149.706 175.792 164.898 174.505C178.694 173.337 201.308 172.919 210.473 188.205C219.531 203.31 217.168 224.493 222.369 241.248C227.713 258.466 238.033 268.64 247.664 282.262C256.831 295.227 260.846 313.052 258.198 329.709Z" fill="url(#paint0_linear_162_71)"/>
</g>
<defs>
<filter id="filter0_f_162_71" x="-173.7" y="0.300003" width="606.4" height="563.4" filterUnits="userSpaceOnUse" color-interpolation-filters="sRGB">
<feFlood flood-opacity="0" result="BackgroundImageFix"/>
<feBlend mode="normal" in="SourceGraphic" in2="BackgroundImageFix" result="shape"/>
<feGaussianBlur stdDeviation="86.85" result="effect1_foregroundBlur_162_71"/>
</filter>
<linearGradient id="paint0_linear_162_71" x1="129.5" y1="390" x2="129.765" y2="135.215" gradientUnits="userSpaceOnUse">
<stop stop-color="#8B44C4"/>
<stop offset="1" stop-color="white"/>
</linearGradient>
</defs>
</svg>
