<svg width="505" height="623" viewBox="0 0 505 623" fill="none" xmlns="http://www.w3.org/2000/svg">
<g filter="url(#filter0_f_162_68)">
<path d="M393.165 62.1771C423.99 71.9105 438.8 101.728 454.432 127.368C447.92 132.451 451.807 134.932 455.662 141.49C464.314 156.207 459.278 164.958 456.584 181.314C450.793 216.472 410.602 229.536 388.296 252.54C372.661 268.664 375.211 283.568 378.121 303.866C382.557 334.814 377.661 363.402 365.681 392.314C357.993 410.868 345.684 443.797 322.079 447.992C303.656 451.266 284.533 440.407 270.658 430.545C250.463 416.191 240.553 404.721 231.195 382.121C225.594 368.594 223.891 347.44 219.587 333.5C210.01 302.481 191.739 275.098 182.449 243.892C175.792 221.533 173.292 201.622 174.454 178.446C175.509 157.398 179.181 123.137 200.717 111.722C221.999 100.441 249.037 107.4 271.739 102.214C295.071 96.8846 310.191 82.9066 329.656 70.5208C348.182 58.7324 372.052 55.5103 393.165 62.1771Z" fill="url(#paint0_linear_162_68)"/>
</g>
<defs>
<filter id="filter0_f_162_68" x="0.479691" y="-114.946" width="633.728" height="737.233" filterUnits="userSpaceOnUse" color-interpolation-filters="sRGB">
<feFlood flood-opacity="0" result="BackgroundImageFix"/>
<feBlend mode="normal" in="SourceGraphic" in2="BackgroundImageFix" result="shape"/>
<feGaussianBlur stdDeviation="86.85" result="effect1_foregroundBlur_162_68"/>
</filter>
<linearGradient id="paint0_linear_162_68" x1="447.391" y1="266.419" x2="116.928" y2="225.395" gradientUnits="userSpaceOnUse">
<stop stop-color="#8B44C4"/>
<stop offset="1" stop-color="white"/>
</linearGradient>
</defs>
</svg>
