<svg width="59" height="62" viewBox="0 0 59 62" fill="none" xmlns="http://www.w3.org/2000/svg">
<path d="M5.36755 55.8022L0 0H59L53.6253 55.7934L29.4642 62L5.36755 55.8022Z" fill="#1572B6"/>
<path d="M29.5 57.2571L49.0249 52.2417L53.6181 4.56372H29.5V57.2571Z" fill="#33A9DC"/>
<path d="M29.5 24.7802H39.2744L39.9483 17.772H29.5V10.9276H48.0211L47.8443 12.7633L46.0304 31.6245H29.5V24.7802Z" fill="white"/>
<path d="M29.5444 42.5543L29.5109 42.5632L21.2851 40.5039L20.7594 35.0457H13.3438L14.3785 45.7916L29.5085 49.6843L29.5444 49.6754V42.5543Z" fill="#EBEBEB"/>
<path d="M38.6473 31.3341L37.7582 40.499L29.5205 42.5583V49.6795L44.6624 45.7912L44.7748 44.6353L46.0581 31.3341H38.6473Z" fill="white"/>
<path d="M29.5269 10.9276V17.772H11.6844L11.5363 16.233L11.1993 12.7633L11.0225 10.9276H29.5269ZM29.5006 24.7802V31.6245H21.3776L21.2294 30.0856L20.8948 26.6158L20.718 24.7802H29.5006Z" fill="#EBEBEB"/>
</svg>
