<svg width="59" height="59" viewBox="0 0 59 59" fill="none" xmlns="http://www.w3.org/2000/svg">
<path d="M45.1719 0H13.8281C6.19106 0 0 6.19106 0 13.8281V45.1719C0 52.8089 6.19106 59 13.8281 59H45.1719C52.8089 59 59 52.8089 59 45.1719V13.8281C59 6.19106 52.8089 0 45.1719 0Z" fill="#F4F2ED"/>
<mask id="mask0_159_133" style="mask-type:luminance" maskUnits="userSpaceOnUse" x="14" y="6" width="31" height="47">
<path d="M14.0586 6.45312H44.7939V52.5469H14.0586V6.45312Z" fill="white"/>
</mask>
<g mask="url(#mask0_159_133)">
<path d="M21.744 52.5469C25.9846 52.5469 29.4262 49.1053 29.4262 44.8647V37.1823H21.744C17.5033 37.1823 14.0615 40.6241 14.0615 44.8647C14.0615 49.1053 17.5033 52.5469 21.744 52.5469Z" fill="#0ACF83"/>
<path d="M14.0615 29.5C14.0615 25.2593 17.5033 21.8177 21.744 21.8177H29.4262V37.1822H21.744C17.5033 37.1822 14.0615 33.7406 14.0615 29.5Z" fill="#A259FF"/>
<path d="M14.0615 14.1353C14.0615 9.89471 17.5033 6.45312 21.744 6.45312H29.4262V21.8178H21.744C17.5033 21.8178 14.0615 18.376 14.0615 14.1353Z" fill="#F24E1E"/>
<path d="M29.4258 6.45312H37.108C41.3486 6.45312 44.7904 9.89471 44.7904 14.1353C44.7904 18.376 41.3486 21.8178 37.108 21.8178H29.4258V6.45312Z" fill="#FF7262"/>
<path d="M44.7904 29.5C44.7904 33.7406 41.3486 37.1822 37.108 37.1822C32.8674 37.1822 29.4258 33.7406 29.4258 29.5C29.4258 25.2593 32.8674 21.8177 37.108 21.8177C41.3486 21.8177 44.7904 25.2593 44.7904 29.5Z" fill="#1ABCFE"/>
</g>
</svg>
