<svg width="52" height="59" viewBox="0 0 52 59" fill="none" xmlns="http://www.w3.org/2000/svg">
<path d="M4.73244 53.0762L0 0H52L47.2612 53.0678L25.9684 58.9712L4.73244 53.0762Z" fill="#E44F26"/>
<path d="M26 54.4599L43.207 49.6896L47.2549 4.3407H26V54.4599Z" fill="#F1662A"/>
<path d="M26.0011 24.0245H17.3871L16.7932 17.3586H26.0011V10.8486H9.67871L9.83456 12.5967L11.4331 30.5345H26.0011V24.0245ZM26.0011 40.9303L25.9716 40.9387L18.7224 38.9821L18.259 33.7906H11.7237L12.6357 44.0094L25.9716 47.712L26.0011 47.7036V40.9303Z" fill="#EBEBEB"/>
<path d="M25.9766 24.0245V30.5345H33.9924L33.2384 38.9779L25.9766 40.9366V47.7099L39.323 44.0094L39.4199 42.91L40.9489 25.7726L41.109 24.0245H25.9766ZM25.9766 10.8486V17.3586H41.7008L41.8314 15.897L42.1284 12.5967L42.2842 10.8486H25.9766Z" fill="white"/>
</svg>
