<svg width="56" height="59" viewBox="0 0 56 59" fill="none" xmlns="http://www.w3.org/2000/svg">
<path d="M10.3928 9.08814C6.8363 14.1989 7.27893 20.849 9.99613 26.2805L10.195 26.6665L10.3222 26.9113L10.4015 27.052L10.5432 27.3055C10.6274 27.454 10.714 27.6016 10.8025 27.7501L10.9506 27.9939C11.0488 28.1516 11.1489 28.3083 11.2515 28.4646L11.3796 28.6624C11.5214 28.8738 11.666 29.0843 11.8155 29.2918L11.8281 29.3078L11.9016 29.4069C12.0308 29.5849 12.1638 29.761 12.2988 29.9357L12.4482 30.1258C12.5687 30.2772 12.6911 30.4271 12.8154 30.5776L12.9557 30.745C13.1226 30.9414 13.2933 31.1378 13.467 31.3293L13.4772 31.34L13.497 31.3617C13.6668 31.547 13.8405 31.7284 14.017 31.9098L14.1834 32.0777C14.3199 32.2151 14.4587 32.35 14.5985 32.4845L14.7683 32.6461C14.9555 32.8222 15.1442 32.9954 15.3372 33.1637L15.3459 33.1714L15.445 33.2556C15.6148 33.4031 15.7875 33.5483 15.9617 33.6919L16.1755 33.8627C16.3177 33.9764 16.4614 34.0891 16.606 34.1994L16.8368 34.374C16.9964 34.4916 17.1575 34.6072 17.32 34.7209L17.4956 34.8457L17.5445 34.8805C17.6983 34.9869 17.8565 35.089 18.0137 35.1911L18.2169 35.3265C18.4588 35.4789 18.704 35.6303 18.9517 35.7764L19.1549 35.8911C19.3373 35.996 19.5206 36.0996 19.7064 36.2002L20.0116 36.3579L20.4063 36.563L20.4973 36.607L20.6589 36.6849C20.8654 36.7836 21.0739 36.8808 21.2843 36.9746L21.4164 37.0337C21.6573 37.1391 21.9006 37.2402 22.1459 37.3375L22.3239 37.4071C22.5508 37.4952 22.7811 37.5808 23.0123 37.662L23.0989 37.692C23.3524 37.7811 23.6087 37.8628 23.8666 37.9436L24.0519 37.9987C24.314 38.0781 24.5738 38.1719 24.8442 38.2222C42.0429 41.3584 47.0385 27.8875 47.0385 27.8875C42.8425 33.3538 35.3952 34.7954 28.3388 33.1903C28.0713 33.1298 27.812 33.0461 27.5513 32.9697L27.3549 32.9097C27.1005 32.8322 26.8477 32.7499 26.5964 32.663L26.4924 32.6258C26.2683 32.5464 26.0454 32.4636 25.8238 32.3776L25.6361 32.3041C25.3938 32.2083 25.1524 32.1082 24.9144 32.0042L24.7702 31.9398C24.566 31.848 24.363 31.7537 24.1612 31.6568L23.9851 31.5722C23.8269 31.4953 23.6707 31.4135 23.5139 31.3327L23.2 31.1678C23.0089 31.0662 22.8217 30.9598 22.6354 30.8514L22.4449 30.7455C22.1975 30.5989 21.9523 30.4486 21.7096 30.2946L21.5112 30.1625C21.3351 30.0494 21.1607 29.9334 20.9883 29.8147L20.8195 29.6962C20.6533 29.5791 20.4885 29.4601 20.3251 29.3392L20.1059 29.1733C19.956 29.0586 19.807 28.943 19.6599 28.8245L19.4611 28.6649C19.2734 28.511 19.0881 28.3553 18.9053 28.1961L18.8443 28.1453C18.6469 27.9712 18.4521 27.7941 18.26 27.6142L18.0955 27.4555C17.953 27.3208 17.813 27.1836 17.6756 27.0438L17.5111 26.8794C17.336 26.7004 17.1643 26.519 16.9959 26.3347L16.9703 26.3071C16.7923 26.1123 16.6181 25.9141 16.4479 25.7126L16.311 25.55C16.1835 25.3968 16.0582 25.2418 15.9351 25.0851L15.7972 24.9134C15.6497 24.7228 15.5049 24.5301 15.3628 24.3353C11.4454 18.9914 10.0377 11.621 13.169 5.5684M21.4319 4.78183C18.8603 8.48249 18.9996 13.4375 21.0062 17.351C21.3419 18.0089 21.7219 18.6433 22.1435 19.2497C22.5285 19.8026 22.9562 20.4596 23.4675 20.9032C23.6528 21.1073 23.8467 21.3066 24.0446 21.502L24.1965 21.6525C24.3885 21.8387 24.584 22.0221 24.7857 22.2001L24.8099 22.2209L24.8157 22.2267C25.0392 22.4226 25.2699 22.6108 25.5041 22.7965L25.6603 22.9184C25.8954 23.0984 26.1349 23.2754 26.3806 23.4443L26.4014 23.4602L26.7304 23.6765L26.8861 23.7795C27.0617 23.8922 27.2393 24.0015 27.4202 24.1065L27.4956 24.151C27.6514 24.2405 27.8091 24.3286 27.9673 24.4147L28.1352 24.5017L28.4651 24.673L28.5149 24.6957C28.7418 24.807 28.9701 24.9149 29.2038 25.0164L29.3556 25.0793C29.5424 25.1582 29.7306 25.2356 29.9202 25.3081L30.1621 25.3972C30.3343 25.461 30.5065 25.5195 30.6806 25.5776L30.9148 25.6526C31.162 25.729 31.4067 25.8262 31.6641 25.8693C44.9429 28.0689 48.0084 17.8449 48.0084 17.8449C45.2453 21.8252 39.8936 23.7239 34.1829 22.2417C33.9306 22.1751 33.6797 22.1027 33.4307 22.0245L33.2048 21.9514C33.0284 21.8946 32.8531 21.8343 32.679 21.7705L32.4415 21.682C32.2514 21.6088 32.0626 21.5325 31.875 21.4532L31.7226 21.3888C31.4892 21.287 31.2582 21.1796 31.0299 21.0667L30.6826 20.8901L30.4823 20.7871C30.3343 20.7068 30.1872 20.6235 30.0426 20.5384L29.9376 20.4789C29.758 20.3743 29.5806 20.2659 29.4055 20.1538L29.2449 20.0469L28.9004 19.8186C28.6569 19.6496 28.4175 19.4745 28.1826 19.2937L28.021 19.166C25.5215 17.1928 23.5401 14.4955 22.5982 11.4372C21.6109 8.26529 21.8237 4.70491 23.5342 1.81502M30.7164 1.56443C29.2004 3.79547 29.0514 6.56685 30.1035 9.03106C31.2127 11.6467 33.4859 13.6982 36.1392 14.6715L36.4691 14.7852L36.6143 14.8317C36.7705 14.881 36.9258 14.9381 37.0874 14.9681C44.4195 16.385 46.4082 11.206 46.9374 10.4431C45.1954 12.9513 42.2678 13.5536 38.6755 12.6814C38.3816 12.6064 38.0916 12.5168 37.8067 12.4129C37.4554 12.288 37.1108 12.1449 36.7744 11.9843C36.1362 11.677 35.53 11.3072 34.9647 10.8804C31.7502 8.44137 29.7538 3.78918 31.8513 0" fill="#0868AC"/>
<path d="M29.0661 45.7919H27.0218C26.964 45.7941 26.9084 45.8149 26.8633 45.8513C26.8183 45.8876 26.7861 45.9375 26.7717 45.9936L26.0461 49.3508L25.3205 52.708C25.3062 52.7641 25.2742 52.814 25.2292 52.8504C25.1842 52.8867 25.1287 52.9075 25.0709 52.9097H23.624C22.1926 52.9097 22.358 51.9195 22.6512 50.5631L22.6599 50.5219L22.6918 50.3507L22.6976 50.3188L22.7629 49.9705L22.8331 49.5975L22.9075 49.2178L23.2375 47.6059L23.5679 45.9941C23.5742 45.9695 23.5746 45.9437 23.5692 45.9189C23.5637 45.8941 23.5525 45.8709 23.5365 45.8512C23.5204 45.8315 23.5 45.8158 23.4768 45.8054C23.4536 45.795 23.4283 45.7902 23.4029 45.7914H21.3049C21.2471 45.7935 21.1916 45.8144 21.1467 45.8509C21.1019 45.8873 21.0701 45.9375 21.0563 45.9936L20.6049 48.1337L20.1541 50.2743L20.1531 50.2772L20.1115 50.4765C19.592 52.8483 19.7293 55.1108 22.5534 55.1819L22.6357 55.1833H27.0682C27.1261 55.1811 27.1816 55.1603 27.2266 55.124C27.2716 55.0876 27.3036 55.0377 27.3179 54.9816L28.2737 50.4881L29.2296 45.9941C29.2533 45.8828 29.1798 45.7924 29.0661 45.7919ZM7.17371 45.7682H4.92912C4.87114 45.7704 4.81539 45.7912 4.77005 45.8274C4.7247 45.8636 4.69213 45.9134 4.67709 45.9694L4.46424 46.9088L4.2514 47.8483C4.22673 47.9591 4.2988 48.0495 4.41248 48.0495H6.67448C6.73241 48.0474 6.7881 48.0266 6.83325 47.9903C6.87841 47.9539 6.91061 47.9039 6.92506 47.8478L7.13065 46.9088L7.33625 45.9699C7.35995 45.8591 7.28739 45.7682 7.17371 45.7682ZM6.52258 48.6919H4.2601C4.20214 48.6943 4.14643 48.715 4.1011 48.7512C4.05576 48.7874 4.02317 48.8372 4.00807 48.8932L3.69025 50.3009L3.37291 51.7081L3.28439 52.1115L2.97914 53.5483L2.67438 54.9855C2.65068 55.0963 2.60182 55.2752 2.56554 55.3826C2.56554 55.3826 2.14275 56.6404 1.43212 56.6259L1.34312 56.6239L0.728274 56.6128C0.670515 56.6142 0.614236 56.634 0.568607 56.6695C0.522979 56.7049 0.489926 56.7541 0.474308 56.8097L0.239691 57.796L0.00555741 58.7819C-0.0210486 58.8922 0.0505459 58.9832 0.163259 58.9851C0.566219 58.9899 1.46889 59.0001 2.01504 59.0001C3.7899 59.0001 4.72595 58.0166 5.32531 55.1867L6.02723 51.9388L6.68561 48.8927C6.70931 48.7829 6.63578 48.6919 6.52258 48.6919ZM48.1813 47.9305L48.0875 47.543L47.9951 47.1464L47.9482 46.9461C47.7644 46.2316 47.225 45.8199 46.0533 45.8199L44.2296 45.818L42.5501 45.8156H40.6601C40.6023 45.8177 40.5468 45.8385 40.5019 45.8749C40.4569 45.9113 40.425 45.9612 40.4109 46.0173L40.3272 46.412L40.2286 46.8784L40.201 47.0095L39.3501 50.9955L38.5422 54.7794C38.518 54.8907 38.5103 55.0271 38.5238 55.0822C38.5374 55.1379 38.7556 55.1833 38.8688 55.1833H40.5735C40.6872 55.1833 40.8308 55.163 40.8927 55.1379C40.9547 55.1127 41.0461 54.8897 41.0688 54.7789L41.3717 53.2798L41.675 51.7802L41.6754 51.7778L41.7161 51.578L42.0837 49.8558L42.4083 48.3349C42.4226 48.279 42.4546 48.2291 42.4995 48.1928C42.5443 48.1565 42.5998 48.1356 42.6574 48.1332L48.0217 48.1308C48.1354 48.1318 48.207 48.0413 48.1813 47.9305ZM55.0868 44.4282L54.6737 44.4296H52.9569C52.894 44.4332 52.8326 44.4503 52.7769 44.4798C52.7212 44.5092 52.6725 44.5504 52.6342 44.6004L48.8373 50.1625C48.7735 50.2564 48.7004 50.2428 48.6752 50.1325L48.3956 48.9072C48.3806 48.8511 48.3479 48.8013 48.3025 48.765C48.2571 48.7288 48.2012 48.7081 48.1431 48.706H45.7026C45.589 48.706 45.5217 48.795 45.5527 48.9038L46.6464 52.7356C46.6774 52.8449 46.6798 53.0239 46.6517 53.1342L46.1752 54.9884C46.1467 55.0987 46.2164 55.1882 46.33 55.1882H48.7425C48.8008 55.1858 48.857 55.1653 48.9031 55.1294C48.9493 55.0936 48.9831 55.0443 48.9998 54.9884L49.4768 53.1342C49.5146 53.0035 49.5739 52.88 49.6524 52.769L55.8163 44.5883C55.885 44.4974 55.8478 44.4234 55.7346 44.4243L55.0868 44.4282ZM35.6954 49.2265V49.2245C35.687 49.283 35.6581 49.3365 35.6139 49.3756C35.5697 49.4147 35.513 49.4367 35.454 49.4379H32.3595C32.2521 49.4379 32.1979 49.3653 32.2139 49.2753L32.2168 49.2681L32.2148 49.269L32.2163 49.2589L32.2303 49.2062C32.5259 48.4206 33.1277 47.9049 34.2591 47.9049C35.5333 47.9044 35.782 48.5265 35.6954 49.2265ZM34.7874 45.6545C30.8153 45.6545 29.874 48.0655 29.3457 50.4992C28.818 52.9799 28.8629 55.2985 32.9738 55.2985H33.4721L33.5959 55.298H33.6249L34.1184 55.2965H34.1271C35.2126 55.2922 36.3015 55.2839 36.7422 55.2806C36.7996 55.2777 36.8546 55.2563 36.8989 55.2197C36.9433 55.1831 36.9747 55.1332 36.9884 55.0774L37.1548 54.2642L37.1872 54.106L37.3856 53.1356C37.3919 53.111 37.3924 53.0853 37.3869 53.0605C37.3815 53.0357 37.3703 53.0125 37.3542 52.9928C37.3382 52.9732 37.3177 52.9575 37.2945 52.9472C37.2713 52.9369 37.246 52.9322 37.2206 52.9334H33.5253C32.0552 52.9334 31.6188 52.543 31.7799 51.3946H37.687L37.6865 51.3951L37.6903 51.3946C37.7371 51.3926 37.7822 51.3772 37.8204 51.3501C37.8586 51.3231 37.8882 51.2856 37.9056 51.2422L37.9196 51.191L37.9192 51.1915C38.7962 47.8831 38.5446 45.655 34.7874 45.6545ZM16.0132 49.2139L15.9571 49.4118L15.5111 50.9931L15.0651 52.5735C15.0468 52.6295 15.0119 52.6786 14.9649 52.7141C14.918 52.7497 14.8612 52.77 14.8024 52.7723H12.4417C10.6509 52.7723 10.2145 51.3714 10.6509 49.3058C11.0867 47.1928 11.9415 45.8794 13.7043 45.7464C16.1133 45.5645 16.5951 47.2586 16.0132 49.2139ZM17.6328 52.6509C17.6328 52.6509 18.7459 49.9477 18.9984 48.3872C19.3433 46.2979 18.297 43.2667 14.2557 43.2667C10.2378 43.2667 8.4924 46.16 7.82676 49.3058C7.16113 52.4743 8.03332 55.2525 12.0286 55.2298L15.1807 55.2182L18.1262 55.2075C18.1846 55.2046 18.2407 55.1838 18.2869 55.148C18.3331 55.1122 18.3672 55.0631 18.3845 55.0072L18.8978 53.05C18.9263 52.9397 18.8571 52.8497 18.7435 52.8488L18.2515 52.8459L17.7595 52.843C17.6633 52.8425 17.6081 52.7796 17.6197 52.6969L17.6328 52.6509ZM37.5244 50.8412C37.5245 50.859 37.521 50.8766 37.5142 50.8931C37.5074 50.9095 37.4975 50.9245 37.4849 50.9371C37.4724 50.9497 37.4575 50.9597 37.441 50.9665C37.4246 50.9733 37.407 50.9769 37.3892 50.9769C37.3714 50.9769 37.3538 50.9735 37.3374 50.9667C37.3209 50.9599 37.306 50.95 37.2934 50.9374C37.2808 50.9249 37.2708 50.9099 37.2639 50.8935C37.2571 50.8771 37.2536 50.8595 37.2535 50.8417C37.2535 50.8058 37.2677 50.7713 37.293 50.7459C37.3184 50.7204 37.3528 50.7061 37.3887 50.706C37.4247 50.7059 37.4591 50.7202 37.4846 50.7455C37.51 50.7709 37.5244 50.8053 37.5244 50.8412Z" fill="#131B28"/>
</svg>
