<svg width="129" height="48" viewBox="0 0 129 48" fill="none" xmlns="http://www.w3.org/2000/svg">
<path d="M2.4 9H19.2C22 9 24.0267 9.64 25.28 10.92C26.56 12.1733 27.2 14.2 27.2 17V20.6C27.2 22.8133 26.8267 24.5333 26.08 25.76C25.36 26.9867 24.2 27.8 22.6 28.2L27.6 37H19.8L15.2 28.6H9.6V37H2.4V9ZM20 17C20 15.4 19.2 14.6 17.6 14.6H9.6V23H17.6C19.2 23 20 22.2 20 20.6V17ZM52.3891 31C52.3891 33 51.8157 34.5733 50.6691 35.72C49.5491 36.84 47.9891 37.4 45.9891 37.4H36.7891C34.7891 37.4 33.2157 36.84 32.0691 35.72C30.9491 34.5733 30.3891 33 30.3891 31V21.8C30.3891 19.8 30.9491 18.24 32.0691 17.12C33.2157 15.9733 34.7891 15.4 36.7891 15.4H45.9891C47.9891 15.4 49.5491 15.9733 50.6691 17.12C51.8157 18.24 52.3891 19.8 52.3891 21.8V31ZM45.3891 22.4C45.3891 21.3333 44.8557 20.8 43.7891 20.8H38.9891C37.9224 20.8 37.3891 21.3333 37.3891 22.4V30.4C37.3891 31.4667 37.9224 32 38.9891 32H43.7891C44.8557 32 45.3891 31.4667 45.3891 30.4V22.4ZM62.9844 16.2C65.571 15.6667 67.8377 15.4 69.7844 15.4H71.5844C73.3977 15.4 74.851 15.9467 75.9444 17.04C77.0377 18.1333 77.5844 19.5867 77.5844 21.4V37H70.5844V22.2C70.5844 21.8 70.451 21.4667 70.1844 21.2C69.9177 20.9333 69.5844 20.8 69.1844 20.8H67.7844C66.771 20.8 65.8377 20.8533 64.9844 20.96C64.1577 21.0667 63.491 21.1467 62.9844 21.2V37H55.9844V9H62.9844V16.2ZM89.5797 31.8C90.993 31.8 92.593 31.5333 94.3797 31V28.6H88.5797C88.1797 28.6 87.8464 28.7333 87.5797 29C87.313 29.2667 87.1797 29.6 87.1797 30V30.4C87.1797 30.8 87.313 31.1333 87.5797 31.4C87.8464 31.6667 88.1797 31.8 88.5797 31.8H89.5797ZM82.1797 16.2C87.0597 15.6667 91.4597 15.4 95.3797 15.4C97.193 15.4 98.6464 15.9467 99.7397 17.04C100.833 18.1333 101.38 19.5867 101.38 21.4V37H95.1797L94.7797 35C93.5264 35.8267 92.233 36.44 90.8997 36.84C89.593 37.2133 88.4864 37.4 87.5797 37.4H86.1797C84.3664 37.4 82.913 36.8533 81.8197 35.76C80.7264 34.6667 80.1797 33.2133 80.1797 31.4V29.6C80.1797 27.7867 80.7264 26.3333 81.8197 25.24C82.913 24.1467 84.3664 23.6 86.1797 23.6H94.3797V22C94.3797 21.6 94.2464 21.2667 93.9797 21C93.713 20.7333 93.3797 20.6 92.9797 20.6C91.2464 20.6 89.3264 20.68 87.2197 20.84C85.1397 21 83.4597 21.12 82.1797 21.2V16.2ZM116.769 21.2C115.355 21.2 113.755 21.4667 111.969 22V37H104.969V15.8H111.169L111.569 17.8C112.822 16.9733 114.102 16.3733 115.409 16C116.742 15.6 117.862 15.4 118.769 15.4H120.569C122.382 15.4 123.835 15.9467 124.929 17.04C126.022 18.1333 126.569 19.5867 126.569 21.4V37H119.569V22.6C119.569 22.2 119.435 21.8667 119.169 21.6C118.902 21.3333 118.569 21.2 118.169 21.2H116.769Z" fill="url(#paint0_linear_159_240)"/>
<defs>
<linearGradient id="paint0_linear_159_240" x1="10.8708" y1="21.12" x2="111.832" y2="61.5001" gradientUnits="userSpaceOnUse">
<stop stop-color="#3E00A4"/>
<stop offset="1" stop-color="#90B4CD"/>
</linearGradient>
</defs>
</svg>
