<svg width="59" height="59" viewBox="0 0 59 59" fill="none" xmlns="http://www.w3.org/2000/svg">
<g clip-path="url(#clip0_159_112)">
<path d="M0 0H59V59H0V0Z" fill="#F7DF1E"/>
<path d="M15.5129 49.3047L20.0278 46.5722C20.899 48.1166 21.6913 49.4233 23.592 49.4233C25.4139 49.4233 26.5628 48.7107 26.5628 45.9387V27.0868H32.1071V46.017C32.1071 51.7596 28.7409 54.3736 23.8296 54.3736C19.3943 54.3736 16.8197 52.0765 15.5127 49.3042M35.1187 48.7105L39.6331 46.0968C40.8216 48.0375 42.3662 49.4632 45.0987 49.4632C47.3962 49.4632 48.8611 48.3146 48.8611 46.7303C48.8611 44.8294 47.3561 44.156 44.8214 43.0474L43.4356 42.4528C39.4354 40.7503 36.782 38.6116 36.782 34.0967C36.782 29.9381 39.9502 26.7697 44.9009 26.7697C48.4257 26.7697 50.9604 27.9976 52.782 31.2055L48.4649 33.978C47.5142 32.2751 46.4849 31.6019 44.9007 31.6019C43.2768 31.6019 42.2471 32.6316 42.2471 33.978C42.2471 35.6413 43.2768 36.315 45.6529 37.3447L47.039 37.9386C51.7521 39.9587 54.4054 42.0179 54.4054 46.6513C54.4054 51.6418 50.4847 54.3743 45.2174 54.3743C40.0689 54.3743 36.7421 51.9189 35.1184 48.7107" fill="black"/>
</g>
<defs>
<clipPath id="clip0_159_112">
<rect width="59" height="59" fill="white"/>
</clipPath>
</defs>
</svg>
