<svg width="59" height="59" viewBox="0 0 59 59" fill="none" xmlns="http://www.w3.org/2000/svg">
<path d="M45.1719 0H13.8281C6.19106 0 0 6.19106 0 13.8281V45.1719C0 52.8089 6.19106 59 13.8281 59H45.1719C52.8089 59 59 52.8089 59 45.1719V13.8281C59 6.19106 52.8089 0 45.1719 0Z" fill="#001E36"/>
<path d="M13.2754 41.0327V15.7364C13.2754 15.5643 13.3491 15.4661 13.5213 15.4661C13.9391 15.4661 14.3326 15.4661 14.8979 15.4414C15.4879 15.4168 16.1026 15.4168 16.7663 15.3924C17.4301 15.3677 18.1429 15.3677 18.9051 15.343C19.667 15.3186 20.4045 15.3186 21.142 15.3186C23.1579 15.3186 24.8295 15.5643 26.2063 16.0805C27.4404 16.4996 28.5656 17.1883 29.5004 18.0964C30.2925 18.8912 30.9046 19.847 31.2951 20.8989C31.6638 21.9314 31.8604 22.9886 31.8604 24.0949C31.8604 26.2089 31.3688 27.9543 30.3854 29.3311C29.402 30.7077 28.0254 31.7402 26.4276 32.3302C24.7557 32.9449 22.912 33.1661 20.8963 33.1661C20.3063 33.1661 19.9129 33.1661 19.667 33.1414C19.4213 33.1168 19.077 33.1168 18.6101 33.1168V41.008C18.6345 41.1802 18.5116 41.3277 18.3395 41.3524H13.5704C13.3738 41.3524 13.2754 41.2539 13.2754 41.0327ZM18.6345 20.2105V28.4705C18.9788 28.4952 19.2982 28.5199 19.5932 28.5199H20.8963C21.8551 28.5199 22.8138 28.3724 23.7232 28.0774C24.5101 27.8561 25.1982 27.3889 25.7391 26.7743C26.2554 26.1599 26.5013 25.3239 26.5013 24.2424C26.5244 23.4741 26.3282 22.7151 25.9357 22.0543C25.5179 21.4152 24.9279 20.9236 24.2151 20.653C23.3054 20.2843 22.322 20.1368 21.3141 20.1614C20.6751 20.1614 20.1095 20.1614 19.6426 20.1861C19.1507 20.1614 18.8066 20.1861 18.6345 20.2105ZM47.2004 26.9711C46.4629 26.5777 45.6763 26.3074 44.8404 26.1352C43.9307 25.9386 43.0213 25.8155 42.087 25.8155C41.5954 25.7911 41.0791 25.8649 40.612 25.9877C40.2926 26.0614 40.022 26.2336 39.8501 26.4793C39.727 26.6761 39.6532 26.9218 39.6532 27.143C39.6532 27.3643 39.7516 27.5855 39.8991 27.7824C40.1204 28.0527 40.4154 28.2739 40.7351 28.4461C41.305 28.7413 41.8873 29.012 42.4804 29.2574C43.8079 29.6999 45.0863 30.3143 46.2663 31.0518C47.0776 31.568 47.7413 32.2564 48.2082 33.0924C48.6016 33.8789 48.7982 34.7393 48.7738 35.6243C48.7982 36.7799 48.4541 37.9352 47.8151 38.8939C47.1293 39.8753 46.1725 40.6355 45.0616 41.0818C43.857 41.598 42.382 41.8686 40.612 41.8686C39.4813 41.8686 38.3751 41.7702 37.2688 41.5489C36.4018 41.3992 35.5585 41.1347 34.7613 40.7624C34.5891 40.6639 34.4663 40.4918 34.4907 40.2952V36.0177C34.4907 35.9439 34.5154 35.8455 34.5891 35.7964C34.6629 35.7474 34.7366 35.7718 34.8104 35.8211C35.7691 36.3864 36.777 36.7799 37.8588 37.0255C38.7929 37.2714 39.7763 37.3943 40.7595 37.3943C41.6938 37.3943 42.3576 37.2714 42.8001 37.0502C43.1932 36.878 43.4638 36.4602 43.4638 36.0177C43.4638 35.6736 43.267 35.3539 42.8738 35.0343C42.4804 34.7149 41.6691 34.3461 40.4645 33.8789C39.2288 33.4435 38.0553 32.8485 36.9738 32.1089C36.2035 31.5599 35.5652 30.846 35.1054 30.0193C34.712 29.2327 34.5154 28.3724 34.5401 27.5118C34.5401 26.4549 34.8351 25.4468 35.3757 24.5374C35.9904 23.5539 36.9001 22.7674 37.957 22.2755C39.1126 21.6855 40.5629 21.4152 42.3082 21.4152C43.3163 21.4152 44.3488 21.4889 45.3566 21.6364C46.0941 21.7349 46.807 21.9314 47.4707 22.2018C47.5691 22.2264 47.6676 22.3249 47.7166 22.423C47.7413 22.5214 47.7657 22.6199 47.7657 22.718V26.7252C47.7657 26.8236 47.7166 26.9218 47.6429 26.9711C47.4216 27.0202 47.2988 27.0202 47.2004 26.9711Z" fill="#31A8FF"/>
</svg>
