<svg width="59" height="59" viewBox="0 0 59 59" fill="none" xmlns="http://www.w3.org/2000/svg">
<path d="M22.5975 24.4041L44.5144 2.48383C45.3028 1.69594 46.2386 1.07107 47.2684 0.644889C48.2983 0.218713 49.4019 -0.000420819 50.5164 6.06691e-07C51.6309 0.000422032 52.7344 0.22039 53.7639 0.647345C54.7934 1.0743 55.7288 1.69988 56.5166 2.48837C57.3043 3.27686 57.9291 4.21281 58.3552 5.2428C58.7813 6.27278 59.0004 7.37662 59 8.49129C58.9996 9.60596 58.7796 10.7096 58.3528 11.7393C57.9259 12.769 57.3004 13.7044 56.512 14.4923L34.5951 36.4081C33.3184 37.6856 31.7186 38.5923 29.9667 39.0312L23.1693 40.7286C22.4934 40.897 21.7854 40.8878 21.1142 40.7017C20.4429 40.5157 19.8312 40.1591 19.3384 39.6667C18.8456 39.1743 18.4886 38.5628 18.3019 37.8916C18.1152 37.2204 18.1053 36.5124 18.2732 35.8362L19.9748 29.0378C20.41 27.2841 21.3171 25.6787 22.5975 24.4041ZM9.07532 45.3713H21.5085C21.9305 45.4031 22.3616 45.4076 22.7972 45.3713H45.3766C46.5801 45.3713 47.7342 44.8932 48.5852 44.0421C49.4362 43.1909 49.9143 42.0366 49.9143 40.833V27.5083L54.4519 22.97V40.833C54.4519 43.2402 53.4958 45.549 51.7938 47.2512C50.0919 48.9534 47.7835 49.9097 45.3766 49.9097H36.3149V54.4616H43.1214C43.7231 54.4616 44.3002 54.7007 44.7257 55.1263C45.1512 55.5518 45.3902 56.129 45.3902 56.7308C45.3902 57.3326 45.1512 57.9098 44.7257 58.3354C44.3002 58.7609 43.7231 59 43.1214 59H11.3668C10.7651 59 10.188 58.7609 9.76253 58.3354C9.33705 57.9098 9.09801 57.3326 9.09801 56.7308C9.09801 56.129 9.33705 55.5518 9.76253 55.1263C10.188 54.7007 10.7651 54.4616 11.3668 54.4616H18.1688V49.9097H9.07532C6.6684 49.9097 4.36005 48.9534 2.6581 47.2512C0.956147 45.549 0 43.2402 0 40.833V13.6164C0 11.2091 0.956147 8.90043 2.6581 7.19822C4.36005 5.496 6.6684 4.53971 9.07532 4.53971H36.0426L31.505 9.07807H9.07532C7.87186 9.07807 6.71769 9.55621 5.86671 10.4073C5.01573 11.2584 4.53766 12.4128 4.53766 13.6164V40.833C4.53766 42.0366 5.01573 43.1909 5.86671 44.0421C6.71769 44.8932 7.87186 45.3713 9.07532 45.3713ZM31.7772 49.9097H22.711V54.4616H31.7772V49.9097Z" fill="url(#paint0_linear_159_98)"/>
<defs>
<linearGradient id="paint0_linear_159_98" x1="29.5" y1="0" x2="29.5" y2="59" gradientUnits="userSpaceOnUse">
<stop stop-color="#BAA2E1"/>
<stop offset="0.499945" stop-color="#A1C3DB"/>
<stop offset="1" stop-color="#ECE0FF"/>
</linearGradient>
</defs>
</svg>
